<?xml version="1.0" standalone="no"?> <!DOCTYPE svg PUBLIC "-//W3C//DTD SVG 20010904//EN" "http://www.w3.org/TR/2001/REC-SVG-20010904/DTD/svg10.dtd"> <svg version="1.0" xmlns="http://www.w3.org/2000/svg" width="64px" height="64px" viewBox="0 0 512.000000 512.000000" preserveAspectRatio="xMidYMid meet"> <g transform="translate(0.000000,512.000000) scale(0.100000,-0.100000)" fill="#000000" stroke="none"> <path d="M1075 5108 c-82 -15 -223 -89 -287 -150 -73 -71 -133 -165 -161 -253 l-22 -70 0 -2075 0 -2075 22 -70 c28 -88 88 -182 161 -253 67 -64 207 -135 296 -151 88 -16 3189 -15 3219 1 47 25 46 17 47 524 l0 481 62 6 c51 5 67 10 85 32 l23 26 0 1992 c-1 1550 -3 1996 -13 2008 -7 9 -22 21 -34 27 -27 15 -3320 15 -3398 0z m205 -1908 l0 -1750 85 0 85 0 0 1750 0 1750 855 0 855 0 0 -484 c0 -474 0 -484 21 -510 16 -20 29 -26 58 -26 32 0 59 16 191 115 96 72 157 112 164 106 6 -4 75 -56 154 -115 160 -118 190 -129 237 -81 l25 24 0 486 0 485 170 0 170 0 0 -1880 0 -1880 -1621 0 c-1786 0 -1672 4 -1803 -62 -34 -16 -82 -48 -108 -70 l-48 -39 0 1778 c0 1928 -3 1834 54 1933 39 68 114 140 182 172 71 33 125 45 212 47 l62 1 0 -1750z m2560 1370 c0 -209 -2 -380 -5 -380 -3 0 -53 36 -112 80 -80 59 -116 80 -139 80 -23 0 -58 -20 -137 -80 -59 -44 -109 -80 -112 -80 -3 0 -5 171 -5 380 l0 380 255 0 255 0 0 -380z m340 -3720 l0 -170 -1495 0 -1496 0 3 -82 3 -83 1493 -3 1492 -2 0 -170 0 -170 -1504 0 c-981 0 -1522 4 -1557 10 -80 15 -168 61 -222 116 -228 229 -132 611 177 709 33 10 358 13 1574 14 l1532 1 0 -170z"/> <path d="M1821 3731 c-11 -11 -23 -35 -26 -53 -3 -18 -5 -228 -3 -465 l3 -432 23 -23 23 -23 1055 -3 1055 -2 30 29 29 29 0 457 0 456 -25 24 -24 25 -1061 0 c-1037 0 -1060 0 -1079 -19z m2019 -491 l0 -340 -940 0 -940 0 0 340 0 340 940 0 940 0 0 -340z"/> <path d="M2220 2305 l0 -85 680 0 680 0 0 85 0 85 -680 0 -680 0 0 -85z"/> <path d="M1880 1795 l0 -85 1025 0 1026 0 -3 83 -3 82 -1022 3 -1023 2 0 -85z"/> </g> </svg>
