<?xml version="1.0" standalone="no"?> <!DOCTYPE svg PUBLIC "-//W3C//DTD SVG 20010904//EN" "http://www.w3.org/TR/2001/REC-SVG-20010904/DTD/svg10.dtd"> <svg version="1.0" xmlns="http://www.w3.org/2000/svg" width="64px" height="64px" viewBox="0 0 512.000000 512.000000" preserveAspectRatio="xMidYMid meet"> <g transform="translate(0.000000,512.000000) scale(0.100000,-0.100000)" fill="#000000" stroke="none"> <path d="M2484 4781 c-79 -41 -109 -151 -61 -221 43 -63 66 -73 190 -81 61 -4 157 -10 212 -14 95 -7 102 -6 134 16 56 39 76 74 76 133 0 58 -29 112 -75 139 -34 20 -138 35 -300 42 -124 6 -138 5 -176 -14z"/> <path d="M1934 4711 c-164 -49 -262 -91 -294 -127 -89 -101 -15 -264 120 -264 17 0 58 11 93 25 34 15 113 41 175 60 137 40 158 54 184 112 48 109 -30 225 -149 222 -21 0 -79 -13 -129 -28z"/> <path d="M3270 4621 c-40 -21 -80 -89 -80 -136 0 -18 10 -51 23 -75 21 -40 34 -49 207 -136 205 -105 239 -113 301 -71 57 38 81 84 77 144 -6 73 -37 108 -149 170 -213 118 -306 144 -379 104z"/> <path d="M1265 4384 c-79 -43 -295 -236 -321 -286 -8 -15 -14 -49 -14 -75 0 -110 111 -183 217 -142 15 5 52 34 83 62 30 29 94 85 143 125 48 40 94 86 102 102 34 67 10 153 -57 203 -36 27 -114 32 -153 11z"/> <path d="M3993 4189 c-76 -15 -123 -74 -123 -152 0 -54 16 -91 55 -127 15 -14 70 -76 122 -137 100 -120 130 -143 188 -143 106 0 186 101 156 200 -18 61 -226 310 -286 343 -32 17 -78 24 -112 16z"/> <path d="M713 3785 c-43 -19 -82 -75 -160 -233 -92 -186 -95 -253 -18 -321 61 -53 154 -50 208 7 14 15 64 104 112 197 81 159 86 173 82 221 -2 31 -12 63 -25 81 -41 58 -129 79 -199 48z"/> <path d="M1301 3505 c-234 -51 -438 -257 -486 -490 -21 -101 -21 -809 0 -910 18 -83 70 -195 126 -265 84 -106 231 -197 367 -226 98 -20 645 -20 725 1 132 34 249 126 309 241 l33 64 185 0 186 0 27 -56 c60 -121 197 -226 332 -254 37 -8 160 -10 378 -8 298 4 327 6 387 26 197 66 361 231 423 427 21 68 22 83 22 505 0 422 -1 437 -22 505 -52 163 -175 309 -323 383 -150 75 -84 72 -1415 71 -976 0 -1202 -3 -1254 -14z m2527 -344 c70 -38 100 -69 140 -145 l27 -51 0 -405 0 -405 -27 -51 c-40 -76 -70 -107 -140 -145 l-63 -34 -312 0 c-299 0 -313 1 -339 21 -46 34 -65 67 -74 134 -9 67 -28 100 -74 134 -27 20 -39 21 -406 21 -367 0 -379 -1 -406 -21 -46 -34 -65 -67 -74 -134 -9 -67 -28 -100 -74 -134 -26 -20 -40 -21 -339 -21 l-312 0 -51 27 c-76 40 -107 70 -145 140 l-34 63 0 405 0 405 25 50 c43 86 125 154 215 176 17 4 563 6 1215 6 l1185 -2 63 -34z"/> <path d="M3135 3026 c-94 -41 -124 -168 -59 -246 42 -49 60 -54 206 -60 117 -4 140 -8 164 -26 46 -34 65 -67 74 -134 15 -105 66 -155 160 -155 123 0 182 97 150 248 -37 179 -177 325 -357 372 -74 19 -295 20 -338 1z"/> <path d="M4415 3510 c-51 -21 -95 -90 -95 -149 0 -17 13 -64 30 -105 16 -41 41 -117 56 -168 14 -51 34 -106 44 -123 59 -97 210 -91 267 11 30 52 29 92 -7 213 -79 266 -125 332 -232 330 -24 0 -52 -4 -63 -9z"/> <path d="M428 3020 c-20 -11 -45 -34 -56 -52 -28 -45 -45 -167 -46 -330 -1 -124 1 -139 20 -165 72 -98 195 -98 268 0 16 22 21 49 27 140 4 61 10 158 14 213 7 95 6 104 -15 138 -43 70 -138 95 -212 56z"/> <path d="M4560 2698 c-65 -45 -73 -65 -82 -210 -4 -73 -11 -160 -16 -193 -9 -68 -2 -113 22 -150 59 -90 209 -86 265 6 24 39 40 149 47 319 5 128 4 137 -18 174 -44 74 -150 100 -218 54z"/> <path d="M480 2219 c-59 -24 -100 -85 -100 -146 0 -46 38 -183 87 -311 26 -66 45 -101 69 -122 87 -76 221 -35 255 78 14 49 16 39 -51 242 -70 209 -70 209 -106 237 -39 29 -112 40 -154 22z"/> <path d="M4405 1902 c-16 -10 -35 -25 -42 -33 -16 -20 -179 -344 -186 -370 -11 -42 13 -107 53 -143 75 -67 176 -52 240 36 55 76 163 305 168 358 5 58 -17 111 -61 142 -43 31 -131 36 -172 10z"/> <path d="M792 1469 c-64 -42 -90 -135 -56 -202 38 -75 234 -296 286 -323 39 -20 104 -17 148 7 83 47 105 162 44 234 -16 18 -63 73 -104 121 -155 182 -149 177 -221 181 -53 3 -70 0 -97 -18z"/> <path d="M3967 1235 c-16 -8 -60 -44 -98 -79 -38 -35 -98 -86 -133 -113 -84 -64 -110 -102 -110 -162 0 -54 24 -103 67 -135 22 -16 43 -21 91 -21 62 0 65 1 142 60 43 33 118 98 166 145 93 91 108 121 94 195 -18 94 -136 153 -219 110z"/> <path d="M1392 920 c-47 -29 -72 -76 -72 -135 0 -95 38 -129 259 -237 173 -85 245 -89 306 -16 39 46 50 102 31 153 -9 23 -27 51 -39 63 -12 11 -98 59 -192 106 -187 95 -229 105 -293 66z"/> <path d="M3280 778 c-30 -11 -111 -38 -180 -59 -138 -43 -167 -59 -192 -110 -54 -105 22 -229 140 -229 77 0 375 101 419 142 32 30 57 101 49 139 -10 52 -44 96 -90 118 -53 26 -76 26 -146 -1z"/> <path d="M2152 641 c-98 -63 -95 -223 6 -275 43 -22 175 -38 324 -40 123 -1 139 1 164 20 72 53 94 140 54 212 -35 62 -76 78 -210 86 -63 3 -158 8 -210 12 -85 5 -99 3 -128 -15z"/> </g> </svg>