<?xml version="1.0" standalone="no"?> <!DOCTYPE svg PUBLIC "-//W3C//DTD SVG 20010904//EN" "http://www.w3.org/TR/2001/REC-SVG-20010904/DTD/svg10.dtd"> <svg version="1.0" xmlns="http://www.w3.org/2000/svg" width="64px" height="64px" viewBox="0 0 512.000000 512.000000" preserveAspectRatio="xMidYMid meet"> <g transform="translate(0.000000,512.000000) scale(0.100000,-0.100000)" fill="#000000" stroke="none"> <path d="M2025 4935 c-16 -15 -25 -35 -25 -56 0 -28 18 -51 142 -176 l143 -143 -283 -282 -282 -283 -143 143 c-128 127 -147 142 -178 142 -31 0 -75 -41 -636 -603 -565 -564 -603 -604 -603 -637 0 -31 16 -51 183 -217 166 -166 186 -183 217 -183 32 0 63 29 437 402 l403 402 143 -142 c128 -127 147 -142 178 -142 31 0 69 35 516 482 l483 482 143 -142 c125 -124 148 -142 176 -142 21 0 41 9 56 25 l25 24 0 511 0 511 -25 24 -24 25 -511 0 -511 0 -24 -25z m935 -477 l0 -342 -104 102 c-90 89 -108 102 -137 102 -31 0 -70 -37 -516 -482 l-483 -482 -143 142 c-128 127 -147 142 -177 142 -32 0 -65 -31 -437 -402 l-403 -403 -103 103 -102 102 522 522 523 523 143 -143 c128 -127 147 -142 178 -142 31 0 61 28 396 363 334 333 363 365 363 396 0 30 -13 47 -102 137 l-102 104 342 0 342 0 0 -342z"/> <path d="M3440 4947 c-49 -16 -133 -102 -148 -153 -17 -57 -17 -1295 0 -1345 6 -19 20 -46 30 -61 19 -28 19 -28 0 -55 -33 -48 -42 -93 -42 -206 0 -97 -2 -108 -15 -97 -9 7 -17 11 -18 9 -2 -2 -24 -30 -49 -61 l-46 -58 70 -67 c290 -279 376 -703 219 -1073 -95 -223 -302 -423 -532 -514 -121 -47 -193 -60 -351 -60 l-146 -1 -12 -73 c-6 -41 -10 -76 -7 -78 3 -3 51 -8 108 -11 114 -6 234 6 356 38 95 24 276 111 361 173 l62 46 0 -465 0 -466 -25 -24 -24 -25 -671 0 -671 0 -24 25 -25 24 0 520 0 519 26 31 26 31 -55 61 c-97 109 -176 263 -214 415 -26 108 -24 335 5 444 44 162 118 301 221 412 182 197 399 299 672 316 l114 7 5 74 c4 56 2 75 -8 79 -23 9 -223 -6 -297 -22 -333 -71 -620 -291 -770 -591 -127 -255 -154 -497 -89 -797 l6 -28 -557 0 c-409 0 -569 -3 -599 -12 -55 -16 -138 -99 -154 -154 -17 -59 -17 -1289 0 -1348 16 -55 99 -138 154 -154 57 -17 1295 -17 1345 0 19 6 46 20 62 30 27 19 27 19 55 0 59 -41 70 -42 772 -42 702 0 713 1 773 42 27 19 27 19 55 0 15 -10 42 -24 61 -30 50 -17 1288 -17 1345 0 55 16 138 99 154 154 17 57 17 1295 0 1345 -6 19 -20 46 -30 62 -19 27 -19 27 0 55 41 59 42 70 42 772 0 702 -1 713 -42 773 -19 27 -19 27 0 55 10 15 24 42 30 61 17 49 17 1288 0 1343 -6 22 -31 62 -55 88 -75 83 -46 80 -777 79 -437 -1 -652 -5 -676 -12z m640 -442 l0 -296 25 -24 24 -25 231 0 231 0 24 25 25 24 0 296 0 295 55 0 c46 0 60 -4 80 -25 l25 -24 0 -631 0 -631 -25 -24 -24 -25 -631 0 -631 0 -24 25 -25 24 0 631 0 631 25 24 24 25 296 0 295 0 0 -295z m400 55 l0 -240 -120 0 -120 0 0 240 0 240 120 0 120 0 0 -240z m-400 -1575 l0 -296 25 -24 24 -25 231 0 231 0 24 25 25 24 0 296 0 295 55 0 c46 0 60 -4 80 -25 l25 -24 0 -671 0 -671 -25 -24 -24 -25 -559 0 -559 0 13 52 c51 194 41 432 -27 629 -28 83 -98 221 -143 284 l-36 50 0 188 c0 186 0 188 25 212 l24 25 296 0 295 0 0 -295z m400 55 l0 -240 -120 0 -120 0 0 240 0 240 120 0 120 0 0 -240z m-3520 -1655 l0 -296 25 -24 24 -25 231 0 231 0 24 25 25 24 0 296 c0 329 3 341 58 238 17 -32 47 -80 66 -108 l36 -50 0 -548 0 -548 -25 -24 -24 -25 -631 0 -631 0 -24 25 -25 24 0 631 0 631 25 24 24 25 296 0 295 0 0 -295z m400 55 l0 -240 -120 0 -120 0 0 240 0 240 120 0 120 0 0 -240z m2720 -55 l0 -296 25 -24 24 -25 231 0 231 0 24 25 25 24 0 296 0 295 55 0 c46 0 60 -4 80 -25 l25 -24 0 -631 0 -631 -25 -24 -24 -25 -631 0 -631 0 -24 25 -25 24 0 548 0 548 41 60 c22 33 51 81 65 108 l24 47 255 0 255 0 0 -295z m400 55 l0 -240 -120 0 -120 0 0 240 0 240 120 0 120 0 0 -240z"/> <path d="M665 4775 c-16 -15 -25 -35 -25 -56 0 -122 -117 -239 -239 -239 -42 0 -81 -38 -81 -80 0 -42 39 -80 81 -80 122 0 239 -117 239 -239 0 -42 38 -81 80 -81 42 0 80 39 80 81 0 122 117 239 239 239 42 0 81 38 81 80 0 42 -39 80 -81 80 -122 0 -239 117 -239 239 0 42 -38 81 -80 81 -19 0 -40 -9 -55 -25z m95 -340 l34 -35 -37 -38 -37 -37 -37 37 -37 38 34 35 c19 19 37 35 40 35 3 0 21 -16 40 -35z"/> <path d="M2640 3827 c-49 -16 -133 -102 -148 -153 -28 -94 -8 -169 63 -239 51 -52 102 -75 165 -75 63 0 114 23 165 75 98 97 101 222 8 325 -65 72 -158 97 -253 67z m135 -172 c16 -15 25 -36 25 -55 0 -19 -9 -40 -25 -55 -15 -16 -36 -25 -55 -25 -19 0 -40 9 -55 25 -16 15 -25 36 -25 55 0 19 9 40 25 55 15 16 36 25 55 25 19 0 40 -9 55 -25z"/> <path d="M2816 3238 c-8 -26 -35 -142 -33 -143 1 -1 29 -9 62 -19 33 -10 65 -21 72 -23 7 -3 22 17 37 50 43 97 44 92 -26 114 -108 35 -108 35 -112 21z"/> <path d="M2416 2938 c-19 -17 -31 -44 -44 -102 -16 -75 -19 -79 -53 -93 -36 -14 -38 -13 -101 25 -83 51 -101 56 -135 38 -33 -17 -156 -141 -172 -174 -15 -29 -8 -50 41 -130 38 -63 39 -65 25 -101 -14 -34 -18 -37 -93 -53 -117 -27 -124 -38 -124 -188 0 -150 7 -161 124 -188 75 -16 79 -19 93 -53 14 -36 13 -38 -25 -101 -49 -80 -56 -101 -41 -130 16 -33 139 -157 172 -174 34 -18 52 -13 135 38 63 38 65 39 101 25 34 -14 37 -18 53 -93 27 -117 38 -124 188 -124 150 0 161 7 188 124 16 75 19 79 53 93 36 14 38 13 101 -25 83 -51 101 -56 135 -38 33 17 156 141 172 174 15 29 8 50 -41 130 -38 63 -39 65 -25 100 13 34 18 36 93 54 117 27 124 38 124 188 0 150 -7 161 -124 188 -75 18 -80 20 -93 54 -14 35 -13 37 25 100 51 83 56 101 38 135 -17 33 -141 156 -174 172 -29 15 -50 8 -130 -41 -63 -38 -65 -39 -101 -25 -34 14 -37 18 -53 93 -27 117 -38 124 -188 124 -109 0 -121 -2 -144 -22z m194 -211 c9 -37 23 -74 31 -82 19 -19 176 -85 202 -85 12 0 49 16 82 36 60 37 76 37 98 3 6 -10 -1 -32 -27 -74 -20 -33 -36 -70 -36 -82 0 -26 66 -183 85 -202 8 -8 45 -22 82 -32 66 -16 68 -17 68 -49 0 -32 -2 -33 -68 -49 -37 -10 -74 -24 -82 -32 -19 -19 -85 -176 -85 -202 0 -12 16 -49 36 -82 26 -42 33 -64 27 -74 -22 -34 -38 -34 -98 3 -33 20 -70 36 -82 36 -26 0 -183 -66 -202 -85 -8 -8 -22 -45 -32 -82 -16 -66 -17 -68 -49 -68 -32 0 -33 2 -49 68 -10 37 -24 74 -32 82 -19 19 -176 85 -202 85 -12 0 -49 -16 -82 -36 -60 -37 -76 -37 -98 -3 -6 10 1 32 27 74 20 33 36 70 36 82 0 26 -66 183 -85 202 -8 8 -45 22 -82 32 -66 16 -68 17 -68 49 0 32 2 33 68 49 37 10 74 24 82 32 19 19 85 176 85 202 0 12 -16 49 -36 82 -26 42 -33 64 -27 74 22 34 38 34 98 -3 33 -20 70 -36 82 -36 32 0 185 68 204 90 10 11 22 43 29 72 18 81 17 80 51 76 30 -3 32 -6 49 -71z"/> <path d="M2460 2464 c-142 -52 -229 -183 -218 -327 26 -318 443 -407 597 -127 33 60 36 71 36 150 -1 72 -5 93 -27 136 -39 75 -70 107 -138 143 -76 41 -179 51 -250 25z m163 -158 c103 -43 128 -177 48 -257 -65 -65 -157 -65 -222 0 -124 123 13 325 174 257z"/> <path d="M825 2695 c-16 -15 -25 -35 -25 -56 0 -122 -117 -239 -239 -239 -42 0 -81 -38 -81 -80 0 -42 39 -80 81 -80 122 0 239 -117 239 -239 0 -42 38 -81 80 -81 42 0 80 39 80 81 0 122 117 239 239 239 42 0 81 38 81 80 0 42 -39 80 -81 80 -122 0 -239 117 -239 239 0 42 -38 81 -80 81 -19 0 -40 -9 -55 -25z m95 -340 l34 -35 -37 -38 -37 -37 -37 37 -37 38 34 35 c19 19 37 35 40 35 3 0 21 -16 40 -35z"/> <path d="M2080 1240 c-16 -33 -30 -63 -30 -68 0 -11 133 -72 155 -72 9 0 22 25 35 71 12 39 20 72 18 74 -7 7 -128 55 -138 55 -5 0 -23 -27 -40 -60z"/> </g> </svg>