<?xml version="1.0" standalone="no"?> <!DOCTYPE svg PUBLIC "-//W3C//DTD SVG 20010904//EN" "http://www.w3.org/TR/2001/REC-SVG-20010904/DTD/svg10.dtd"> <svg version="1.0" xmlns="http://www.w3.org/2000/svg" width="64px" height="64px" viewBox="0 0 512.000000 512.000000" preserveAspectRatio="xMidYMid meet"> <g transform="translate(0.000000,512.000000) scale(0.100000,-0.100000)" fill="#000000" stroke="none"> <path d="M653 5110 c-178 -32 -353 -135 -466 -275 -62 -77 -131 -219 -152 -315 -23 -105 -21 -254 5 -355 111 -436 566 -684 991 -540 120 41 196 90 296 190 79 80 98 105 142 196 57 119 81 218 81 339 0 347 -225 644 -562 740 -84 24 -254 34 -335 20z m252 -175 c222 -47 415 -236 461 -454 29 -138 14 -262 -48 -391 -75 -156 -228 -280 -398 -321 -84 -20 -222 -16 -305 9 -178 54 -335 202 -395 375 -28 78 -38 244 -21 326 7 31 31 94 53 140 117 239 390 371 653 316z"/> <path d="M2518 4574 c-63 -15 -165 -63 -216 -102 -39 -30 -1221 -1237 -1245 -1272 -14 -21 -17 -51 -17 -207 l0 -183 -329 0 c-294 0 -336 -2 -390 -19 -125 -39 -207 -111 -265 -231 -29 -61 -31 -72 -31 -175 1 -101 3 -115 30 -169 37 -75 119 -164 185 -200 102 -56 104 -56 760 -56 l605 0 50 24 c92 43 155 142 155 245 l0 36 87 -87 87 -88 -210 -212 c-188 -189 -215 -221 -248 -288 -95 -196 -81 -420 39 -600 28 -42 195 -215 472 -491 466 -464 472 -469 607 -492 125 -21 262 21 357 109 60 57 94 113 120 195 33 105 18 231 -38 329 -14 25 -167 188 -343 365 l-318 320 249 255 249 255 752 -751 c702 -700 758 -754 822 -785 59 -29 82 -34 161 -37 142 -6 227 26 328 125 126 124 156 321 73 487 -33 67 -79 115 -763 791 -400 396 -971 960 -1267 1253 l-539 534 89 89 88 89 371 -369 c403 -401 415 -411 549 -434 279 -48 535 207 488 484 -25 145 -25 145 -565 685 -468 468 -496 493 -567 528 -41 19 -102 43 -135 51 -72 18 -210 18 -287 -1z m269 -172 c32 -10 78 -31 103 -46 59 -37 963 -941 985 -986 10 -19 20 -64 23 -100 3 -53 0 -76 -18 -118 -56 -130 -210 -187 -340 -126 -46 21 -118 88 -425 394 -399 398 -391 391 -482 377 -52 -9 -96 -43 -232 -182 -112 -114 -121 -126 -121 -162 -1 -37 9 -48 344 -378 1694 -1670 2246 -2221 2272 -2269 54 -98 31 -235 -51 -304 -57 -48 -111 -65 -189 -60 -39 3 -87 13 -106 22 -19 10 -386 369 -815 797 -821 820 -799 799 -853 770 -10 -5 -163 -158 -340 -339 -307 -315 -322 -332 -322 -368 0 -36 14 -52 349 -389 382 -383 390 -393 391 -500 0 -192 -197 -312 -371 -225 -30 15 -177 155 -460 438 -372 373 -420 424 -447 482 -65 135 -61 281 11 405 17 29 124 146 257 280 140 141 231 240 235 256 4 17 1 38 -9 55 -8 16 -105 119 -215 228 -185 185 -203 200 -236 200 -23 0 -43 -8 -58 -22 -20 -21 -22 -34 -27 -188 l-5 -166 -28 -24 -29 -25 -601 3 c-599 3 -602 3 -643 25 -54 29 -117 101 -132 151 -37 122 14 246 123 305 39 21 54 22 438 27 l399 5 24 28 c24 28 24 31 24 237 l0 210 574 587 c551 566 621 634 676 663 93 50 227 63 327 32z"/> </g> </svg>
